<svg width="256" height="256" viewBox="0 0 256 256" fill="none" xmlns="http://www.w3.org/2000/svg">
<path d="M125.701 187.746L127.204 184.216C130.018 191.567 134.446 198.229 140.471 204.148C151.724 215.202 165.577 220.742 181.66 220.742C197.572 220.742 211.221 215.24 222.216 204.245L222.226 204.235L222.236 204.225C233.22 193.141 238.714 179.409 238.714 163.42C238.714 147.727 233.134 134.148 222.101 123.016C211.056 111.872 197.506 106.232 181.794 106.232C165.554 106.232 151.605 111.757 140.338 122.825C134.276 128.779 129.851 135.529 127.069 143.012L125.634 139.882C123.558 135.352 121.341 131.456 118.94 128.317C116.55 125.103 113.53 122.011 109.963 119.023L109.925 118.99L109.885 118.959C99.3957 110.467 87.1069 106.232 73.28 106.232C57.6476 106.232 44.1107 111.878 32.9914 122.997C21.95 134.039 16.36 147.536 16.36 163.152C16.36 179.034 22.0379 192.755 33.2594 203.977L33.2781 203.995L33.2971 204.014C44.6202 215.138 58.4652 220.742 74.486 220.742C85.6827 220.742 95.9662 217.802 105.182 211.895C114.507 205.976 121.383 197.887 125.701 187.746ZM125.617 179.396H120.18H98.606H96.044L94.2722 181.247C90.5696 185.114 87.2585 187.581 84.3684 188.957C81.5421 190.303 78.1585 191.054 74.084 191.054C66.6116 191.054 60.3235 188.417 54.9054 182.924C49.4923 177.437 46.852 171 46.852 163.286C46.852 155.999 49.099 149.896 53.577 144.684L53.5853 144.674L53.5935 144.665C58.5171 138.885 65.0056 135.92 73.682 135.92C78.7258 135.92 82.7113 136.788 85.8333 138.281C88.9368 139.765 91.9926 142.263 94.9367 146.059L96.7382 148.382H99.678H120.18H125.386C124.151 153.175 123.534 158.237 123.534 163.554C123.534 169.113 124.23 174.399 125.617 179.396ZM98.7418 201.77L98.7294 201.777L98.717 201.785C91.4989 206.414 83.4735 208.742 74.486 208.742C61.5721 208.742 50.7674 204.347 41.7264 195.473C32.7708 186.509 28.36 175.848 28.36 163.152C28.36 150.718 32.686 140.273 41.4766 131.483C50.368 122.591 60.8618 118.232 73.28 118.232C84.4487 118.232 94.034 121.58 102.296 128.254C105.307 130.781 107.624 133.204 109.331 135.505L109.36 135.543L109.388 135.581C109.584 135.836 109.782 136.103 109.98 136.382H102.501C99.1139 132.536 95.2964 129.505 91.0107 127.455C85.914 125.018 80.0729 123.92 73.682 123.92C61.8163 123.92 51.8706 128.188 44.4671 136.873C38.0518 144.344 34.852 153.247 34.852 163.286C34.852 174.153 38.733 183.618 46.3626 191.352C53.9872 199.081 63.3324 203.054 74.084 203.054C79.6575 203.054 84.8499 202.019 89.5276 199.791C93.4926 197.903 97.3446 195.039 101.102 191.396H109.94C106.956 195.472 103.232 198.921 98.7418 201.77ZM148.746 131.387L148.746 131.386C157.668 122.623 168.554 118.232 181.794 118.232C194.311 118.232 204.791 122.598 213.578 131.464C222.378 140.343 226.714 150.884 226.714 163.42C226.714 176.37 222.384 187.023 213.722 195.768C205.065 204.421 194.509 208.742 181.66 208.742C168.62 208.742 157.817 204.366 148.88 195.588C139.947 186.813 135.534 176.256 135.534 163.554C135.534 150.634 139.93 140.045 148.746 131.387ZM200.377 143.855L200.392 143.87L200.407 143.885C205.611 149.237 208.222 155.71 208.222 163.688C208.222 171.797 205.629 178.195 200.569 183.328L200.554 183.343L200.539 183.358C195.579 188.462 189.394 191.054 181.526 191.054C173.695 191.054 167.279 188.439 161.917 183.163C156.641 177.8 154.026 171.385 154.026 163.554C154.026 155.478 156.641 149.032 161.797 143.796C167.039 138.561 173.476 135.92 181.526 135.92C189.126 135.92 195.279 138.538 200.377 143.855ZM153.297 135.325L153.282 135.34L153.268 135.355C145.748 142.98 142.026 152.52 142.026 163.554C142.026 174.469 145.833 183.945 153.402 191.619L153.431 191.649L153.461 191.678C161.134 199.247 170.611 203.054 181.526 203.054C192.41 203.054 201.764 199.308 209.129 191.737C216.566 184.187 220.222 174.689 220.222 163.688C220.222 152.734 216.494 143.222 209.023 135.534C201.618 127.818 192.321 123.92 181.526 123.92C170.466 123.92 160.916 127.706 153.297 135.325ZM6 6H250V250H6V6Z" stroke="white" stroke-width="12"/>
</svg>
