<svg width="343" height="266" viewBox="0 0 343 266" fill="none" xmlns="http://www.w3.org/2000/svg">
<g id="Group 1">
<g id="Text" filter="url(#filter0_d)">
<path d="M103.3 104.46C100.72 110.52 96.64 115.32 91.06 118.86C85.54 122.4 79.39 124.17 72.61 124.17C62.89 124.17 54.61 120.81 47.77 114.09C40.99 107.31 37.6 99.12 37.6 89.52C37.6 80.1 40.93 72.06 47.59 65.4C54.31 58.68 62.38 55.32 71.8 55.32C80.2 55.32 87.55 57.87 93.85 62.97C96.07 64.83 97.87 66.69 99.25 68.55C100.63 70.35 101.98 72.69 103.3 75.57H89.53C87.25 72.63 84.73 70.5 81.97 69.18C79.21 67.86 75.91 67.2 72.07 67.2C65.17 67.2 59.65 69.63 55.51 74.49C51.85 78.75 50.02 83.79 50.02 89.61C50.02 95.85 52.21 101.19 56.59 105.63C60.97 110.07 66.22 112.29 72.34 112.29C75.58 112.29 78.46 111.69 80.98 110.49C83.5 109.29 86.11 107.28 88.81 104.46H103.3Z" fill="white"/>
<path d="M181.582 123H169.252V73.14L151.882 123H141.802L124.432 73.14V123H112.102V56.49H129.022L146.932 106.89L164.662 56.49H181.582V123Z" fill="white"/>
<path d="M260.621 89.7C260.621 99.42 257.321 107.61 250.721 114.27C244.121 120.87 235.991 124.17 226.331 124.17C216.551 124.17 208.271 120.84 201.491 114.18C194.711 107.52 191.321 99.39 191.321 89.79C191.321 80.07 194.681 71.91 201.401 65.31C208.181 58.65 216.521 55.32 226.421 55.32C235.901 55.32 243.971 58.68 250.631 65.4C257.291 72.12 260.621 80.22 260.621 89.7ZM248.201 89.88C248.201 83.52 246.071 78.15 241.811 73.77C237.611 69.39 232.421 67.2 226.241 67.2C219.821 67.2 214.451 69.36 210.131 73.68C205.871 78 203.741 83.37 203.741 89.79C203.741 96.09 205.901 101.43 210.221 105.81C214.601 110.13 219.941 112.29 226.241 112.29C232.541 112.29 237.761 110.16 241.901 105.9C246.101 101.64 248.201 96.3 248.201 89.88Z" fill="white"/>
<path d="M310.536 68.28H282.636V123H270.306V56.49H310.536V68.28Z" fill="white"/>
<path d="M106.9 178.7C106.9 188.42 103.6 196.61 97 203.27C90.4 209.87 82.27 213.17 72.61 213.17C62.83 213.17 54.55 209.84 47.77 203.18C40.99 196.52 37.6 188.39 37.6 178.79C37.6 169.07 40.96 160.91 47.68 154.31C54.46 147.65 62.8 144.32 72.7 144.32C82.18 144.32 90.25 147.68 96.91 154.4C103.57 161.12 106.9 169.22 106.9 178.7ZM94.48 178.88C94.48 172.52 92.35 167.15 88.09 162.77C83.89 158.39 78.7 156.2 72.52 156.2C66.1 156.2 60.73 158.36 56.41 162.68C52.15 167 50.02 172.37 50.02 178.79C50.02 185.09 52.18 190.43 56.5 194.81C60.88 199.13 66.22 201.29 72.52 201.29C78.82 201.29 84.04 199.16 88.18 194.9C92.38 190.64 94.48 185.3 94.48 178.88Z" fill="white"/>
<path d="M165.005 212H152.675V157.28H128.915V212H116.585V145.49H165.005V212Z" fill="white"/>
<path d="M217.729 157.28H200.899V212H188.569V157.28H171.739V145.49H217.729V157.28Z" fill="white"/>
</g>
<rect id="Rictangle" x="6" y="6" width="331" height="254" stroke="white" stroke-width="12"/>
</g>
<defs>
<filter id="filter0_d" x="37.6" y="55.32" width="276.936" height="161.85" filterUnits="userSpaceOnUse" color-interpolation-filters="sRGB">
<feFlood flood-opacity="0" result="BackgroundImageFix"/>
<feColorMatrix in="SourceAlpha" type="matrix" values="0 0 0 0 0 0 0 0 0 0 0 0 0 0 0 0 0 0 127 0"/>
<feOffset dx="4" dy="4"/>
<feColorMatrix type="matrix" values="0 0 0 0 0 0 0 0 0 0 0 0 0 0 0 0 0 0 0.25 0"/>
<feBlend mode="normal" in2="BackgroundImageFix" result="effect1_dropShadow"/>
<feBlend mode="normal" in="SourceGraphic" in2="effect1_dropShadow" result="shape"/>
</filter>
</defs>
</svg>
